<svg width="40" height="40" viewBox="0 0 40 40" fill="none" xmlns="http://www.w3.org/2000/svg">
<path d="M20 40C31.0457 40 40 31.0457 40 20C40 8.9543 31.0457 0 20 0C8.95431 0 0 8.9543 0 20C0 31.0457 8.95431 40 20 40Z" fill="#202C37"/>
<path d="M11.6144 16.2804H15.4858V28.7291H11.6144V16.2804ZM13.557 10.097C14.8018 10.097 15.8005 11.0957 15.8005 12.3405C15.8005 13.5854 14.8018 14.584 13.557 14.584C12.3121 14.584 11.3135 13.5717 11.3135 12.3405C11.3135 11.1094 12.3121 10.097 13.557 10.097Z" fill="white"/>
<path d="M17.9207 16.279H21.6279V17.9753H21.6826C22.2025 16.9903 23.461 15.9644 25.3488 15.9644C29.2613 15.9644 29.9863 18.5362 29.9863 21.8878V28.714H26.1149V22.6675C26.1149 21.2174 26.0876 19.3706 24.104 19.3706C22.1204 19.3706 21.7784 20.9438 21.7784 22.5717V28.7277H17.907V16.279H17.9207Z" fill="white"/>
</svg>
