<svg width="40" height="40" viewBox="0 0 40 40" fill="none" xmlns="http://www.w3.org/2000/svg">
<path d="M20 40C31.0457 40 40 31.0457 40 20C40 8.95431 31.0457 0 20 0C8.9543 0 0 8.95431 0 20C0 31.0457 8.9543 40 20 40Z" fill="#202C37"/>
<path d="M26.2108 12.4348C25.4447 12.4348 24.8291 13.0504 24.8291 13.8165C24.8291 14.5826 25.4447 15.1982 26.2108 15.1982C26.9768 15.1982 27.5924 14.5826 27.5924 13.8165C27.5924 13.0504 26.9768 12.4348 26.2108 12.4348Z" fill="white"/>
<path d="M20.0959 14.1982C16.9085 14.1982 14.323 16.7837 14.323 19.9712C14.323 23.1586 16.9085 25.7441 20.0959 25.7441C23.2833 25.7441 25.8688 23.1586 25.8688 19.9712C25.8688 16.7837 23.2833 14.1982 20.0959 14.1982ZM20.0959 23.6784C18.0576 23.6784 16.4023 22.0231 16.4023 19.9848C16.4023 17.9465 18.0576 16.2913 20.0959 16.2913C22.1342 16.2913 23.7895 17.9465 23.7895 19.9848C23.7895 22.0231 22.1342 23.6784 20.0959 23.6784Z" fill="white"/>
<path d="M24.6786 31.6954H15.3215C11.4364 31.6954 8.27637 28.5353 8.27637 24.6502V15.2932C8.27637 11.4081 11.4364 8.24805 15.3215 8.24805H24.6786C28.5636 8.24805 31.7237 11.4081 31.7237 15.2932V24.6502C31.7237 28.5353 28.5636 31.6954 24.6786 31.6954ZM15.3215 10.4505C12.6539 10.4505 10.4788 12.6256 10.4788 15.2932V24.6502C10.4788 27.3178 12.6539 29.4929 15.3215 29.4929H24.6786C27.3461 29.4929 29.5212 27.3178 29.5212 24.6502V15.2932C29.5212 12.6256 27.3461 10.4505 24.6786 10.4505H15.3215Z" fill="white"/>
</svg>
