<svg width="250" height="330" viewBox="0 0 250 330" fill="none" xmlns="http://www.w3.org/2000/svg">
<path d="M54.36 279.984C54.36 279.877 54.392 279.792 54.456 279.728C54.5413 279.643 54.6373 279.6 54.744 279.6H57.688C57.7947 279.6 57.88 279.643 57.944 279.728C58.0293 279.792 58.072 279.877 58.072 279.984V301.616C58.072 301.723 58.0293 301.819 57.944 301.904C57.88 301.968 57.7947 302 57.688 302H54.84C54.6267 302 54.4773 301.915 54.392 301.744L45.176 286.64C45.1333 286.576 45.0907 286.555 45.048 286.576C45.0053 286.576 44.984 286.619 44.984 286.704L45.048 301.616C45.048 301.723 45.0053 301.819 44.92 301.904C44.856 301.968 44.7707 302 44.664 302H41.72C41.6133 302 41.5173 301.968 41.432 301.904C41.368 301.819 41.336 301.723 41.336 301.616V279.984C41.336 279.877 41.368 279.792 41.432 279.728C41.5173 279.643 41.6133 279.6 41.72 279.6H44.568C44.7813 279.6 44.9307 279.685 45.016 279.856L54.2 294.96C54.2427 295.024 54.2853 295.056 54.328 295.056C54.3707 295.035 54.392 294.981 54.392 294.896L54.36 279.984ZM70.3263 302.32C68.7263 302.32 67.3076 302 66.0703 301.36C64.8329 300.699 63.8729 299.771 63.1903 298.576C62.5289 297.381 62.1983 296.005 62.1983 294.448V287.152C62.1983 285.616 62.5396 284.261 63.2223 283.088C63.9049 281.893 64.8543 280.976 66.0703 280.336C67.3076 279.675 68.7263 279.344 70.3263 279.344C71.9476 279.344 73.3663 279.675 74.5823 280.336C75.8196 280.976 76.7796 281.893 77.4623 283.088C78.1449 284.261 78.4862 285.616 78.4862 287.152V294.448C78.4862 296.005 78.1449 297.381 77.4623 298.576C76.7796 299.771 75.8196 300.699 74.5823 301.36C73.3663 302 71.9476 302.32 70.3263 302.32ZM70.3263 299.12C71.6703 299.12 72.7476 298.704 73.5583 297.872C74.3689 297.04 74.7743 295.941 74.7743 294.576V287.12C74.7743 285.733 74.3689 284.624 73.5583 283.792C72.7476 282.96 71.6703 282.544 70.3263 282.544C69.0036 282.544 67.9369 282.96 67.1263 283.792C66.3156 284.624 65.9103 285.733 65.9103 287.12V294.576C65.9103 295.941 66.3156 297.04 67.1263 297.872C67.9369 298.704 69.0036 299.12 70.3263 299.12ZM97.0873 279.6C97.1939 279.6 97.2793 279.643 97.3433 279.728C97.4286 279.792 97.4713 279.877 97.4713 279.984V282.448C97.4713 282.555 97.4286 282.651 97.3433 282.736C97.2793 282.8 97.1939 282.832 97.0873 282.832H91.1993C91.0926 282.832 91.0393 282.885 91.0393 282.992V301.616C91.0393 301.723 90.9966 301.819 90.9113 301.904C90.8473 301.968 90.7619 302 90.6553 302H87.7113C87.6046 302 87.5086 301.968 87.4233 301.904C87.3593 301.819 87.3273 301.723 87.3273 301.616V282.992C87.3273 282.885 87.2739 282.832 87.1673 282.832H81.5033C81.3966 282.832 81.3006 282.8 81.2153 282.736C81.1513 282.651 81.1193 282.555 81.1193 282.448V279.984C81.1193 279.877 81.1513 279.792 81.2153 279.728C81.3006 279.643 81.3966 279.6 81.5033 279.6H97.0873ZM122.441 282.416C122.441 282.523 122.398 282.619 122.313 282.704C122.249 282.768 122.163 282.8 122.057 282.8H111.177C111.07 282.8 111.017 282.853 111.017 282.96V288.944C111.017 289.051 111.07 289.104 111.177 289.104H118.505C118.611 289.104 118.697 289.147 118.761 289.232C118.846 289.296 118.889 289.381 118.889 289.488V291.92C118.889 292.027 118.846 292.123 118.761 292.208C118.697 292.272 118.611 292.304 118.505 292.304H111.177C111.07 292.304 111.017 292.357 111.017 292.464V301.616C111.017 301.723 110.974 301.819 110.889 301.904C110.825 301.968 110.739 302 110.633 302H107.689C107.582 302 107.486 301.968 107.401 301.904C107.337 301.819 107.305 301.723 107.305 301.616V279.984C107.305 279.877 107.337 279.792 107.401 279.728C107.486 279.643 107.582 279.6 107.689 279.6H122.057C122.163 279.6 122.249 279.643 122.313 279.728C122.398 279.792 122.441 279.877 122.441 279.984V282.416ZM132.858 302.32C131.258 302.32 129.839 302 128.602 301.36C127.364 300.699 126.404 299.771 125.722 298.576C125.06 297.381 124.73 296.005 124.73 294.448V287.152C124.73 285.616 125.071 284.261 125.754 283.088C126.436 281.893 127.386 280.976 128.602 280.336C129.839 279.675 131.258 279.344 132.858 279.344C134.479 279.344 135.898 279.675 137.114 280.336C138.351 280.976 139.311 281.893 139.994 283.088C140.676 284.261 141.017 285.616 141.017 287.152V294.448C141.017 296.005 140.676 297.381 139.994 298.576C139.311 299.771 138.351 300.699 137.114 301.36C135.898 302 134.479 302.32 132.858 302.32ZM132.858 299.12C134.202 299.12 135.279 298.704 136.09 297.872C136.9 297.04 137.306 295.941 137.306 294.576V287.12C137.306 285.733 136.9 284.624 136.09 283.792C135.279 282.96 134.202 282.544 132.858 282.544C131.535 282.544 130.468 282.96 129.658 283.792C128.847 284.624 128.442 285.733 128.442 287.12V294.576C128.442 295.941 128.847 297.04 129.658 297.872C130.468 298.704 131.535 299.12 132.858 299.12ZM152.989 302.256C151.41 302.256 150.013 301.947 148.797 301.328C147.581 300.709 146.631 299.835 145.949 298.704C145.287 297.552 144.957 296.229 144.957 294.736V279.984C144.957 279.877 144.989 279.792 145.053 279.728C145.138 279.643 145.234 279.6 145.341 279.6H148.285C148.391 279.6 148.477 279.643 148.541 279.728C148.626 279.792 148.669 279.877 148.669 279.984V294.8C148.669 296.059 149.063 297.083 149.853 297.872C150.642 298.661 151.687 299.056 152.989 299.056C154.29 299.056 155.335 298.661 156.125 297.872C156.914 297.083 157.309 296.059 157.309 294.8V279.984C157.309 279.877 157.341 279.792 157.405 279.728C157.49 279.643 157.586 279.6 157.693 279.6H160.637C160.743 279.6 160.829 279.643 160.892 279.728C160.978 279.792 161.021 279.877 161.021 279.984V294.736C161.021 296.229 160.69 297.552 160.029 298.704C159.367 299.835 158.429 300.709 157.213 301.328C155.997 301.947 154.589 302.256 152.989 302.256ZM178.516 279.984C178.516 279.877 178.548 279.792 178.612 279.728C178.698 279.643 178.794 279.6 178.9 279.6H181.844C181.951 279.6 182.036 279.643 182.1 279.728C182.186 279.792 182.228 279.877 182.228 279.984V301.616C182.228 301.723 182.186 301.819 182.1 301.904C182.036 301.968 181.951 302 181.844 302H178.996C178.783 302 178.634 301.915 178.548 301.744L169.332 286.64C169.29 286.576 169.247 286.555 169.204 286.576C169.162 286.576 169.14 286.619 169.14 286.704L169.204 301.616C169.204 301.723 169.162 301.819 169.076 301.904C169.012 301.968 168.927 302 168.82 302H165.876C165.77 302 165.674 301.968 165.588 301.904C165.524 301.819 165.492 301.723 165.492 301.616V279.984C165.492 279.877 165.524 279.792 165.588 279.728C165.674 279.643 165.77 279.6 165.876 279.6H168.724C168.938 279.6 169.087 279.685 169.172 279.856L178.356 294.96C178.399 295.024 178.442 295.056 178.484 295.056C178.527 295.035 178.548 294.981 178.548 294.896L178.516 279.984ZM187.001 302C186.895 302 186.799 301.968 186.713 301.904C186.649 301.819 186.617 301.723 186.617 301.616V279.984C186.617 279.877 186.649 279.792 186.713 279.728C186.799 279.643 186.895 279.6 187.001 279.6H194.809C196.324 279.6 197.657 279.867 198.809 280.4C199.961 280.933 200.847 281.701 201.465 282.704C202.105 283.685 202.425 284.837 202.425 286.16V295.44C202.425 296.763 202.105 297.925 201.465 298.928C200.847 299.909 199.961 300.667 198.809 301.2C197.657 301.733 196.324 302 194.809 302H187.001ZM190.329 298.64C190.329 298.747 190.383 298.8 190.489 298.8H194.969C196.1 298.8 196.996 298.448 197.657 297.744C198.34 297.019 198.692 296.059 198.713 294.864V286.768C198.713 285.552 198.372 284.592 197.689 283.888C197.007 283.163 196.089 282.8 194.937 282.8H190.489C190.383 282.8 190.329 282.853 190.329 282.96V298.64Z" fill="#09B3B3"/>
<g clip-path="url(#clip0_41_1424)">
</g>
<rect x="5" y="5" width="240" height="240" rx="11" stroke="#09B3B3" stroke-width="10"/>
<path d="M98.1229 93.8078C97.2435 94.2454 95.908 95.2551 95.1589 96.0629C93.3349 98.0488 83.4331 112.488 82.6514 114.272C82.1303 115.45 82 116.494 82 119.624C82 123.293 82.0651 123.629 83.0097 125.581C83.9217 127.466 84.4754 128.038 89.7195 132.347C93.4 135.376 95.9732 137.261 96.9178 137.564C98.8069 138.237 101.413 138.237 103.921 137.564C106.233 136.958 107.699 137.16 108.611 138.203C108.969 138.607 109.946 140.29 110.826 141.939C112.226 144.632 112.65 146.079 115.223 156.648C119.653 174.891 121.998 180.242 126.362 182.195C129.913 183.81 134.342 182.935 136.916 180.108C137.469 179.502 139.521 176.271 141.443 172.939C144.049 168.395 145.547 166.207 147.371 164.255C150.986 160.317 151.182 159.812 151.377 151.868L151.54 145.305L154.504 141.434C158.413 136.386 158.999 135.208 158.999 132.212C159.032 129.486 158.185 127.197 156.491 125.379C155.905 124.74 153.885 123.259 151.964 122.081C150.042 120.869 148.25 119.59 147.99 119.186C147.729 118.816 146.166 115.282 144.537 111.344C142.909 107.439 141.15 103.67 140.596 102.997C140.075 102.357 138.74 101.347 137.632 100.775C135.189 99.4961 133.365 99.4287 128.577 100.438C126.721 100.842 124.766 101.078 124.213 100.977C123.659 100.876 120.63 99.2268 117.503 97.3083C114.376 95.3561 111.314 93.6059 110.696 93.4039C110.044 93.1683 107.569 93 104.67 93C100.175 93 99.6212 93.0673 98.1229 93.8078ZM114.441 102.121C117.47 104.006 120.63 105.824 121.509 106.16C123.496 106.968 125.45 106.968 129.392 106.127C133.17 105.319 134.18 105.285 135.417 105.958C136.46 106.497 136.948 107.54 140.498 116.191C143.202 122.855 143.984 123.831 148.934 126.928C151.833 128.745 152.648 129.418 153.136 130.462C154.016 132.38 153.527 133.525 149.912 138.237C148.12 140.593 146.622 142.882 146.329 143.79C145.97 144.901 145.84 146.752 145.84 150.926C145.84 154.023 145.71 156.985 145.514 157.456C145.352 157.927 144.114 159.509 142.811 160.923C141.052 162.841 139.489 165.163 136.785 169.775C134.798 173.208 132.942 176.203 132.681 176.439C131.216 177.684 128.447 177.449 127.34 175.968C125.776 173.915 123.366 166.443 120.63 155.1C118.024 144.396 117.731 143.387 115.907 139.583C114.344 136.318 113.594 135.174 112.259 133.929C109.653 131.505 106.917 130.899 103.009 131.875C99.1652 132.818 99.1978 132.851 93.628 128.24C90.8595 125.985 88.3514 123.73 88.0583 123.225C87.7 122.619 87.5372 121.509 87.5372 119.489V116.628L93.2372 108.382C96.3315 103.838 99.2955 99.8326 99.7841 99.4287C100.566 98.7892 101.087 98.7219 104.8 98.7219H108.937L114.441 102.121Z" fill="url(#paint0_linear_41_1424)"/>
<path d="M166.079 143.63C165.564 143.961 163.214 146.248 160.928 148.667L156.743 153.107L155.23 160.895C154.136 166.694 153.846 168.881 154.071 169.511C154.425 170.538 159.608 176.006 160.864 176.669C161.604 177.067 161.99 177.1 162.86 176.802C163.857 176.47 164.437 175.642 168.493 168.683C170.972 164.441 173 160.597 173 160.166C173 159.105 170.457 146.016 170.038 144.889C169.716 143.994 168.332 143 167.463 143C167.238 143 166.626 143.265 166.079 143.63ZM166.24 153.671C166.433 154.632 166.755 156.388 166.948 157.581L167.302 159.735L164.469 164.54C162.924 167.191 161.604 169.412 161.54 169.478C161.443 169.577 160.96 169.213 160.445 168.649L159.512 167.688L160.703 161.657L161.894 155.626L163.664 153.77C164.63 152.776 165.499 151.947 165.628 151.947C165.757 151.947 166.014 152.743 166.24 153.671Z" fill="url(#paint1_linear_41_1424)"/>
<path d="M118.53 35.1006C106.67 36.3517 97.7339 38.9216 87.9764 43.8247C74.4079 50.7229 62.8435 61.1715 54.5644 74.0548C47.8623 84.5373 43.4271 96.5414 41.6202 109.12C40.7988 114.801 40.7988 128.158 41.5873 133.636C45.8254 162.243 62.3179 185.744 87.3193 198.763C105.454 208.163 125.758 210.462 145.634 205.323C154.045 203.158 164.065 198.593 171.096 193.758C183.219 185.44 192.976 174.247 199.547 161.195C205.46 149.495 208.45 137.795 208.943 124.506C209.666 104.014 203.522 84.3682 191.202 68.0697C188.015 63.8429 181.74 57.249 177.831 54.0367C165.971 44.2981 152.008 38.0424 136.928 35.7092C133.807 35.2358 121.323 34.7962 118.53 35.1006ZM123.327 41.221C122.735 42.4045 118.169 46.6313 116.23 47.8148C112.584 50.0804 109.463 51.1286 103.91 51.974C98.7195 52.7517 96.0255 54.4086 93.6601 58.1958C90.1447 63.9105 90.8675 70.7748 95.5656 75.8132C97.7667 78.1802 99.9022 79.3975 102.99 80.0738C105.882 80.7163 108.05 80.4796 111.467 79.2622C113.734 78.4169 114.325 78.3493 118.859 78.3831C123.097 78.4169 124.247 78.5183 127.006 79.2961C137.848 82.2717 147.113 90.3196 152.895 101.85C154.242 104.522 157.067 107.531 159.268 108.613C160.451 109.222 161.634 109.492 163.441 109.56C168.205 109.797 171.687 107.971 176.845 102.527C180.327 98.9084 180.919 98.4689 182.43 98.4689C184.993 98.4689 186.175 100.092 187.982 106.145C189.198 110.202 190.413 112.028 192.91 113.584C195.112 114.936 196.951 115.241 200.335 114.767C201.781 114.598 203.029 114.497 203.128 114.598C203.588 115.038 203.226 128.969 202.668 132.791C198.791 159.369 182.791 182.092 159.597 193.826C152.008 197.714 144.353 200.149 135.942 201.468C130.456 202.313 119.417 202.313 113.931 201.468C105.487 200.149 97.9967 197.748 90.2761 193.826C85.4138 191.357 78.7117 187.029 78.3832 186.15C78.0875 185.406 79.5331 172.049 80.1244 169.817C80.4201 168.803 81.3729 166.673 82.2599 165.083C83.1141 163.494 84.1654 161.296 84.5268 160.18C85.4138 157.577 85.8081 153.35 85.4795 150.509C84.7568 144.186 80.5515 139.012 74.6708 137.186C70.3012 135.834 70.0713 135.665 65.7675 131.404C61.2665 126.907 59.7553 125.791 56.9956 124.81C53.8088 123.694 49.6036 123.661 46.8439 124.743C46.5153 124.878 46.4168 124.066 46.4168 121.091C46.4168 115.41 46.1211 115.816 50.4578 115.647C55.78 115.41 58.9997 114.024 61.9236 110.744C62.5478 110.033 63.7963 108.647 64.6833 107.633C65.9646 106.179 67.1145 105.401 70.5312 103.642C75.7549 100.937 78.0547 98.8408 79.7959 95.2227C81.4714 91.7736 81.8657 88.7303 81.1429 84.774C79.993 78.2816 77.3319 75.0693 70.0384 71.2482L65.3732 68.8136L68.4614 65.4998C82.5227 50.4862 102.465 41.2548 122.078 40.68C123.491 40.6461 123.622 40.7138 123.327 41.221ZM136.337 41.6606C159.104 45.1097 179.013 58.4664 191.465 78.7212C196.196 86.3971 200.237 96.981 201.978 106.314C202.438 108.884 202.635 108.715 198.988 109.12C195.637 109.526 194.586 108.613 193.305 104.217C192.352 101.005 190.676 97.2515 189.559 95.9328C189.099 95.3579 187.949 94.4449 186.964 93.9039C185.42 92.9909 184.927 92.8895 182.43 92.8895C178.718 92.8895 177.666 93.4981 173.1 98.266C168.632 102.932 166.759 104.048 163.704 103.812C160.977 103.609 159.794 102.527 157.264 98.0631C154.012 92.2808 151.909 89.3728 148.262 85.6194C139.589 76.6247 128.78 72.0936 117.117 72.4994C113.569 72.6346 112.551 72.8037 110.317 73.6152C105.98 75.2383 102.892 74.8664 100.165 72.4317C96.6497 69.2532 96.0584 64.4853 98.7523 60.901C100.428 58.6354 101.183 58.2297 104.765 57.6886C108.543 57.1138 112.846 55.9303 115.573 54.6791C120.271 52.5488 126.415 47.1723 129.175 42.7426C130.489 40.68 130.226 40.7138 136.337 41.6606ZM73.1595 80.2429C76.8719 84.4697 76.7077 91.7398 72.8638 95.3917C72.1082 96.1018 69.5456 97.7249 67.213 98.9423C62.8107 101.242 61.5294 102.29 58.4411 106.043C56.24 108.748 54.1702 109.695 50.2278 109.898L47.3367 110.067L47.5666 108.241C48.2894 102.797 51.1805 93.2614 53.9731 87.141C55.55 83.6581 58.7697 77.9773 60.7737 75.0693L61.9236 73.4462L66.7859 75.9822C70.7612 78.0787 71.9439 78.8565 73.1595 80.2429ZM56.1085 130.728C57.4227 131.337 59.0982 132.723 62.1207 135.766C66.5559 140.23 68.1658 141.312 71.7468 142.259C75.5578 143.273 77.6276 144.964 79.1388 148.345C79.763 149.698 79.9273 150.611 79.9273 152.978C79.9273 156.528 79.2045 159.132 77.299 162.378C75.1307 166.064 74.3751 168.837 73.6194 175.532C73.2581 178.812 72.8638 181.551 72.7981 181.652C72.5353 181.923 65.7346 174.484 63.402 171.44C56.9299 162.885 52.429 153.823 49.505 143.374C48.0594 138.201 46.8767 131.337 47.3695 130.829C47.9937 130.187 50.852 129.578 52.5932 129.713C53.5131 129.815 55.1229 130.254 56.1085 130.728Z" fill="url(#paint2_linear_41_1424)"/>
<defs>
<linearGradient id="paint0_linear_41_1424" x1="120.5" y1="183" x2="120.5" y2="93" gradientUnits="userSpaceOnUse">
<stop stop-color="#147373"/>
<stop offset="1" stop-color="#09B3B3"/>
</linearGradient>
<linearGradient id="paint1_linear_41_1424" x1="163.5" y1="177" x2="163.5" y2="143" gradientUnits="userSpaceOnUse">
<stop stop-color="#147373"/>
<stop offset="1" stop-color="#09B3B3"/>
</linearGradient>
<linearGradient id="paint2_linear_41_1424" x1="125" y1="208" x2="125" y2="35" gradientUnits="userSpaceOnUse">
<stop stop-color="#147373"/>
<stop offset="1" stop-color="#09B3B3"/>
</linearGradient>
<clipPath id="clip0_41_1424">
<rect width="250" height="250" rx="16" fill="white"/>
</clipPath>
</defs>
</svg>
