<svg width="121" height="47" viewBox="0 0 121 47" fill="none" xmlns="http://www.w3.org/2000/svg">
<path d="M22.5924 6.15606C19.7685 6.44534 17.6409 7.03954 15.3177 8.1732C12.0871 9.76815 9.33365 12.184 7.36244 15.1628C5.7667 17.5865 4.7107 20.362 4.28047 23.2705C4.08492 24.584 4.08492 27.6722 4.27265 28.9388C5.28172 35.5531 9.20849 40.9869 15.1612 43.997C19.4791 46.1705 24.3133 46.7021 29.0457 45.5137C31.0482 45.0134 33.434 43.9579 35.108 42.8399C37.9944 40.9165 40.3176 38.3287 41.882 35.3108C43.29 32.6056 44.0019 29.9005 44.1192 26.8278C44.2913 22.0899 42.8285 17.5474 39.8952 13.779C39.1364 12.8017 37.6424 11.2771 36.7115 10.5344C33.8877 8.28266 30.5632 6.83626 26.9728 6.29679C26.2297 6.18734 23.2573 6.0857 22.5924 6.15606ZM23.7344 7.57119C23.5936 7.84483 22.5063 8.82213 22.0448 9.09577C21.1765 9.6196 20.4334 9.86197 19.1115 10.0574C17.8755 10.2373 17.2341 10.6204 16.6709 11.496C15.8339 12.8173 16.006 14.4044 17.1246 15.5694C17.6487 16.1167 18.1571 16.3981 18.8924 16.5545C19.5808 16.703 20.0971 16.6483 20.9106 16.3669C21.4503 16.1714 21.5911 16.1558 22.6706 16.1636C23.6797 16.1714 23.9534 16.1949 24.6105 16.3747C27.1918 17.0627 29.3977 18.9235 30.7744 21.5895C31.0952 22.2072 31.7679 22.903 32.292 23.1532C32.5736 23.2939 32.8552 23.3565 33.2854 23.3721C34.4196 23.4268 35.2488 23.0047 36.4769 21.7459C37.306 20.9093 37.4468 20.8077 37.8066 20.8077C38.4168 20.8077 38.6984 21.183 39.1286 22.5825C39.418 23.5207 39.7075 23.9429 40.3019 24.3025C40.826 24.6152 41.2641 24.6856 42.0698 24.5761C42.414 24.5371 42.7112 24.5136 42.7347 24.5371C42.8442 24.6387 42.7581 27.8599 42.6252 28.7433C41.7021 34.8886 37.8927 40.1425 32.3702 42.8555C30.5632 43.7546 28.7407 44.3175 26.7382 44.6225C25.4318 44.8179 22.8036 44.8179 21.4972 44.6225C19.4869 44.3175 17.7035 43.7624 15.8652 42.8555C14.7075 42.2848 13.1118 41.284 13.0336 41.0807C12.9632 40.9087 13.3074 37.8205 13.4482 37.3045C13.5186 37.0699 13.7454 36.5773 13.9566 36.2099C14.16 35.8424 14.4103 35.3342 14.4963 35.0762C14.7075 34.4742 14.8014 33.4969 14.7232 32.8402C14.5511 31.3781 13.5498 30.1819 12.1497 29.7597C11.1093 29.447 11.0545 29.4079 10.0298 28.4228C8.95818 27.3829 8.59836 27.1249 7.94129 26.8982C7.18253 26.6402 6.18128 26.6324 5.52421 26.8826C5.44599 26.9138 5.42252 26.7262 5.42252 26.0382C5.42252 24.7247 5.35212 24.8185 6.38466 24.7794C7.65186 24.7247 8.41844 24.4041 9.11462 23.6458C9.26325 23.4816 9.56049 23.161 9.77169 22.9265C10.0768 22.5903 10.3505 22.4105 11.1641 22.0039C12.4078 21.3784 12.9553 20.8937 13.3699 20.0571C13.7689 19.2597 13.8627 18.556 13.6906 17.6413C13.4169 16.1401 12.7833 15.3974 11.0467 14.5139L9.93596 13.951L10.6713 13.1848C14.0192 9.71342 18.7673 7.57901 23.4372 7.44609C23.7735 7.43828 23.8048 7.45391 23.7344 7.57119ZM26.832 7.67283C32.2528 8.4703 36.9931 11.5586 39.9578 16.2418C41.0842 18.0165 42.0463 20.4637 42.4609 22.6216C42.5704 23.2157 42.6173 23.1767 41.7491 23.2705C40.9512 23.3643 40.7009 23.1532 40.3958 22.1368C40.169 21.3941 39.77 20.5262 39.5041 20.2213C39.3946 20.0884 39.1208 19.8773 38.8861 19.7522C38.5185 19.5411 38.4011 19.5177 37.8066 19.5177C36.9227 19.5177 36.6724 19.6584 35.5851 20.7608C34.5213 21.8397 34.0754 22.0977 33.348 22.043C32.6987 21.9961 32.4171 21.7459 31.8148 20.7139C31.0404 19.3769 30.5398 18.7045 29.6715 17.8367C27.6064 15.757 25.0329 14.7094 22.256 14.8032C21.4112 14.8345 21.1687 14.8735 20.6368 15.0612C19.6043 15.4365 18.869 15.3505 18.2197 14.7875C17.3827 14.0526 17.2419 12.9502 17.8834 12.1215C18.2823 11.5977 18.4622 11.5038 19.3148 11.3787C20.2144 11.2458 21.2391 10.9722 21.8884 10.6829C23.0069 10.1903 24.4697 8.94722 25.1268 7.92302C25.4397 7.44609 25.3771 7.45391 26.832 7.67283ZM11.7898 16.5936C12.6737 17.5709 12.6346 19.2518 11.7194 20.0962C11.5395 20.2604 10.9294 20.6357 10.374 20.9171C9.32582 21.4488 9.02076 21.6912 8.28547 22.559C7.76137 23.1845 7.26857 23.4034 6.3299 23.4503L5.64154 23.4894L5.6963 23.0672C5.86839 21.8084 6.55675 19.6037 7.22164 18.1885C7.59711 17.3832 8.36369 16.0698 8.84085 15.3974L9.11462 15.0221L10.2723 15.6085C11.2188 16.0932 11.5004 16.273 11.7898 16.5936ZM7.73009 28.2664C8.04298 28.4071 8.44191 28.7277 9.16156 29.4314C10.2176 30.4634 10.6009 30.7136 11.4535 30.9325C12.3609 31.167 12.8537 31.558 13.2135 32.3398C13.3621 32.6525 13.4012 32.8636 13.4012 33.4109C13.4012 34.2318 13.2291 34.8339 12.7754 35.5844C12.2592 36.4366 12.0793 37.0777 11.8993 38.6258C11.8133 39.3841 11.7194 40.0174 11.7038 40.0409C11.6412 40.1034 10.022 38.3834 9.46663 37.6797C7.92564 35.7017 6.85399 33.6064 6.15781 31.1905C5.81363 29.9943 5.53203 28.4071 5.64937 28.2899C5.79799 28.1413 6.47853 28.0006 6.8931 28.0319C7.11213 28.0553 7.49542 28.157 7.73009 28.2664Z" fill="white"/>
<path d="M18.6811 19.6662C18.4699 19.7678 18.1492 20.0023 17.9693 20.19C17.5312 20.6513 15.1533 24.0054 14.9655 24.4197C14.8404 24.6934 14.8091 24.9357 14.8091 25.6628C14.8091 26.515 14.8247 26.5932 15.0516 27.0467C15.2706 27.4845 15.4036 27.6174 16.663 28.6182C17.5469 29.3218 18.1648 29.7597 18.3917 29.83C18.8454 29.9864 19.4711 29.9864 20.0735 29.83C20.6288 29.6893 20.9808 29.7362 21.1999 29.9786C21.2859 30.0724 21.5206 30.4633 21.7318 30.8464C22.0681 31.4719 22.1698 31.8081 22.7878 34.2631C23.8516 38.5006 24.4148 39.7437 25.463 40.1972C26.3156 40.5725 27.3794 40.3692 27.9974 39.7125C28.1304 39.5717 28.6232 38.8212 29.0847 38.0471C29.7105 36.9917 30.0703 36.4835 30.5083 36.03C31.3766 35.1153 31.4235 34.998 31.4705 33.1528L31.5096 31.6283L32.2214 30.7291C33.1601 29.5564 33.3009 29.2828 33.3009 28.5869C33.3087 27.9536 33.1053 27.422 32.6986 26.9998C32.5578 26.8512 32.0728 26.5072 31.6113 26.2336C31.1498 25.9521 30.7195 25.655 30.657 25.5612C30.5944 25.4752 30.2189 24.6543 29.8278 23.7395C29.4367 22.8326 29.0143 21.9569 28.8813 21.8006C28.7562 21.652 28.4354 21.4175 28.1695 21.2846C27.5828 20.9875 27.1448 20.9718 25.9949 21.2064C25.549 21.3002 25.0797 21.3549 24.9467 21.3315C24.8137 21.308 24.0863 20.9249 23.3353 20.4793C22.5844 20.0258 21.8491 19.6192 21.7005 19.5723C21.544 19.5176 20.9496 19.4785 20.2534 19.4785C19.1739 19.4785 19.0409 19.4942 18.6811 19.6662ZM22.6 21.5973C23.3275 22.0351 24.0863 22.4573 24.2975 22.5355C24.7746 22.7231 25.244 22.7231 26.1905 22.5277C27.0978 22.34 27.3403 22.3322 27.6376 22.4886C27.8879 22.6137 28.0052 22.856 28.8578 24.8654C29.5071 26.4134 29.6948 26.6401 30.8838 27.3594C31.58 27.7816 31.7755 27.938 31.8929 28.1804C32.1041 28.626 31.9867 28.8918 31.1185 29.9864C30.6883 30.5337 30.3284 31.0653 30.258 31.2764C30.172 31.5344 30.1407 31.9645 30.1407 32.9339C30.1407 33.6532 30.1094 34.3412 30.0625 34.4507C30.0234 34.5602 29.7261 34.9276 29.4132 35.256C28.9908 35.7016 28.6154 36.2411 27.9661 37.3122C27.489 38.1097 27.0431 38.8055 26.9805 38.8603C26.6285 39.1495 25.9636 39.0948 25.6977 38.7508C25.3222 38.2739 24.7433 36.5382 24.0863 33.9034C23.4605 31.4172 23.3901 31.1826 22.952 30.2991C22.5766 29.5408 22.3967 29.2749 22.076 28.9857C21.4502 28.4227 20.7931 28.282 19.8544 28.5087C18.9314 28.7276 18.9392 28.7355 17.6016 27.6643C16.9367 27.1405 16.3344 26.6167 16.264 26.4994C16.178 26.3587 16.1389 26.1007 16.1389 25.6316V24.967L17.5078 23.0515C18.2509 21.996 18.9627 21.0656 19.08 20.9718C19.2678 20.8233 19.3929 20.8076 20.2847 20.8076H21.2781L22.6 21.5973Z" fill="white"/>
<path d="M35.1081 31.5893C34.9829 31.6675 34.4119 32.2069 33.8565 32.7777L32.8396 33.8253L32.472 35.6627C32.206 37.0309 32.1356 37.5469 32.1904 37.6954C32.2764 37.9378 33.5358 39.2278 33.8409 39.3842C34.0208 39.478 34.1147 39.4858 34.3259 39.4155C34.5684 39.3373 34.7092 39.1418 35.6948 37.5C36.2971 36.4992 36.7899 35.5923 36.7899 35.4906C36.7899 35.2405 36.1719 32.1522 36.0702 31.8864C35.992 31.6753 35.6556 31.4407 35.4444 31.4407C35.3897 31.4407 35.2411 31.5033 35.1081 31.5893ZM35.1472 33.9582C35.1941 34.185 35.2724 34.5994 35.3193 34.8808L35.4053 35.389L34.717 36.5227C34.3415 37.1481 34.0208 37.672 34.0051 37.6876C33.9817 37.7111 33.8643 37.6251 33.7392 37.4922L33.5123 37.2654L33.8018 35.8425L34.0912 34.4195L34.5214 33.9817C34.7561 33.7472 34.9673 33.5517 34.9986 33.5517C35.0299 33.5517 35.0924 33.7393 35.1472 33.9582Z" fill="white"/>
<rect x="22.1328" y="10.1328" width="98" height="21" rx="10.5" fill="#DEFDFD"/>
<path d="M32.1828 24.2328C31.4495 24.2328 30.8195 24.0861 30.2928 23.7928C29.7728 23.4928 29.3728 23.0728 29.0928 22.5328C28.8128 21.9861 28.6728 21.3428 28.6728 20.6028C28.6728 20.0495 28.7528 19.5528 28.9128 19.1128C29.0728 18.6661 29.3028 18.2861 29.6028 17.9728C29.9028 17.6528 30.2695 17.4095 30.7028 17.2428C31.1428 17.0695 31.6361 16.9828 32.1828 16.9828C32.5495 16.9828 32.9095 17.0295 33.2628 17.1228C33.6161 17.2161 33.9261 17.3495 34.1928 17.5228C34.3328 17.6095 34.4261 17.7161 34.4728 17.8428C34.5195 17.9628 34.5295 18.0828 34.5028 18.2028C34.4761 18.3161 34.4195 18.4128 34.3328 18.4928C34.2528 18.5728 34.1495 18.6195 34.0228 18.6328C33.9028 18.6395 33.7695 18.5961 33.6228 18.5028C33.4161 18.3695 33.1928 18.2728 32.9528 18.2128C32.7128 18.1528 32.4695 18.1228 32.2228 18.1228C31.7495 18.1228 31.3495 18.2195 31.0228 18.4128C30.6961 18.6061 30.4495 18.8861 30.2828 19.2528C30.1161 19.6195 30.0328 20.0695 30.0328 20.6028C30.0328 21.1295 30.1161 21.5795 30.2828 21.9528C30.4495 22.3261 30.6961 22.6095 31.0228 22.8028C31.3495 22.9961 31.7495 23.0928 32.2228 23.0928C32.4761 23.0928 32.7261 23.0628 32.9728 23.0028C33.2195 22.9361 33.4528 22.8361 33.6728 22.7028C33.8195 22.6161 33.9495 22.5795 34.0628 22.5928C34.1828 22.5995 34.2828 22.6395 34.3628 22.7128C34.4428 22.7861 34.4961 22.8795 34.5228 22.9928C34.5495 23.0995 34.5428 23.2128 34.5028 23.3328C34.4628 23.4461 34.3828 23.5461 34.2628 23.6328C33.9961 23.8261 33.6761 23.9761 33.3028 24.0828C32.9361 24.1828 32.5628 24.2328 32.1828 24.2328ZM36.3397 24.2128C36.133 24.2128 35.973 24.1561 35.8597 24.0428C35.753 23.9228 35.6997 23.7595 35.6997 23.5528V17.7328C35.6997 17.5195 35.7564 17.3595 35.8697 17.2528C35.983 17.1395 36.143 17.0828 36.3497 17.0828H38.7597C39.533 17.0828 40.1297 17.2695 40.5497 17.6428C40.9697 18.0095 41.1797 18.5261 41.1797 19.1928C41.1797 19.6261 41.083 19.9995 40.8897 20.3128C40.703 20.6261 40.4297 20.8661 40.0697 21.0328C39.7097 21.1995 39.273 21.2828 38.7597 21.2828L38.8497 21.1328H39.1797C39.453 21.1328 39.6897 21.1995 39.8897 21.3328C40.0964 21.4661 40.2764 21.6761 40.4297 21.9628L41.1797 23.3528C41.2597 23.4928 41.2964 23.6295 41.2897 23.7628C41.283 23.8961 41.233 24.0061 41.1397 24.0928C41.0464 24.1728 40.9097 24.2128 40.7297 24.2128C40.5497 24.2128 40.403 24.1761 40.2897 24.1028C40.1764 24.0228 40.0764 23.9028 39.9897 23.7428L38.9797 21.8828C38.8597 21.6561 38.7164 21.5061 38.5497 21.4328C38.3897 21.3528 38.183 21.3128 37.9297 21.3128H36.9797V23.5528C36.9797 23.7595 36.9264 23.9228 36.8197 24.0428C36.713 24.1561 36.553 24.2128 36.3397 24.2128ZM36.9797 20.3628H38.5397C38.9997 20.3628 39.3464 20.2695 39.5797 20.0828C39.8197 19.8895 39.9397 19.6028 39.9397 19.2228C39.9397 18.8495 39.8197 18.5695 39.5797 18.3828C39.3464 18.1895 38.9997 18.0928 38.5397 18.0928H36.9797V20.3628ZM43.2352 24.1328C43.0152 24.1328 42.8452 24.0761 42.7252 23.9628C42.6118 23.8428 42.5552 23.6728 42.5552 23.4528V17.7628C42.5552 17.5428 42.6118 17.3761 42.7252 17.2628C42.8452 17.1428 43.0152 17.0828 43.2352 17.0828H46.8052C46.9718 17.0828 47.0985 17.1261 47.1852 17.2128C47.2785 17.2995 47.3252 17.4228 47.3252 17.5828C47.3252 17.7495 47.2785 17.8795 47.1852 17.9728C47.0985 18.0595 46.9718 18.1028 46.8052 18.1028H43.7852V20.0428H46.5852C46.7585 20.0428 46.8885 20.0861 46.9752 20.1728C47.0618 20.2595 47.1052 20.3861 47.1052 20.5528C47.1052 20.7195 47.0618 20.8461 46.9752 20.9328C46.8885 21.0195 46.7585 21.0628 46.5852 21.0628H43.7852V23.1128H46.8052C46.9718 23.1128 47.0985 23.1561 47.1852 23.2428C47.2785 23.3295 47.3252 23.4561 47.3252 23.6228C47.3252 23.7895 47.2785 23.9161 47.1852 24.0028C47.0985 24.0895 46.9718 24.1328 46.8052 24.1328H43.2352ZM48.465 24.2128C48.305 24.2128 48.175 24.1761 48.075 24.1028C47.9817 24.0295 47.925 23.9328 47.905 23.8128C47.885 23.6861 47.9083 23.5461 47.975 23.3928L50.615 17.5428C50.7017 17.3495 50.805 17.2128 50.925 17.1328C51.0517 17.0461 51.195 17.0028 51.355 17.0028C51.5083 17.0028 51.645 17.0461 51.765 17.1328C51.8917 17.2128 51.9983 17.3495 52.085 17.5428L54.735 23.3928C54.8083 23.5461 54.835 23.6861 54.815 23.8128C54.795 23.9395 54.7383 24.0395 54.645 24.1128C54.5517 24.1795 54.4283 24.2128 54.275 24.2128C54.0883 24.2128 53.9417 24.1695 53.835 24.0828C53.735 23.9895 53.645 23.8495 53.565 23.6628L52.915 22.1528L53.455 22.5028H49.235L49.775 22.1528L49.135 23.6628C49.0483 23.8561 48.9583 23.9961 48.865 24.0828C48.7717 24.1695 48.6383 24.2128 48.465 24.2128ZM51.335 18.4728L49.935 21.8028L49.675 21.4828H53.015L52.765 21.8028L51.355 18.4728H51.335ZM57.3952 24.2128C57.1885 24.2128 57.0285 24.1561 56.9152 24.0428C56.8085 23.9228 56.7552 23.7595 56.7552 23.5528V18.1528H54.8052C54.6318 18.1528 54.4952 18.1061 54.3952 18.0128C54.3018 17.9128 54.2552 17.7795 54.2552 17.6128C54.2552 17.4395 54.3018 17.3095 54.3952 17.2228C54.4952 17.1295 54.6318 17.0828 54.8052 17.0828H59.9852C60.1585 17.0828 60.2918 17.1295 60.3852 17.2228C60.4852 17.3095 60.5352 17.4395 60.5352 17.6128C60.5352 17.7795 60.4852 17.9128 60.3852 18.0128C60.2918 18.1061 60.1585 18.1528 59.9852 18.1528H58.0352V23.5528C58.0352 23.7595 57.9818 23.9228 57.8752 24.0428C57.7685 24.1561 57.6085 24.2128 57.3952 24.2128ZM61.9061 24.2128C61.6994 24.2128 61.5394 24.1561 61.4261 24.0428C61.3194 23.9228 61.2661 23.7595 61.2661 23.5528V17.6628C61.2661 17.4495 61.3194 17.2861 61.4261 17.1728C61.5394 17.0595 61.6994 17.0028 61.9061 17.0028C62.1128 17.0028 62.2694 17.0595 62.3761 17.1728C62.4894 17.2861 62.5461 17.4495 62.5461 17.6628V23.5528C62.5461 23.7595 62.4928 23.9228 62.3861 24.0428C62.2794 24.1561 62.1194 24.2128 61.9061 24.2128ZM66.8884 24.2128C66.7084 24.2128 66.5584 24.1728 66.4384 24.0928C66.325 24.0061 66.2317 23.8795 66.1584 23.7128L63.5484 17.8528C63.475 17.6861 63.455 17.5395 63.4884 17.4128C63.5217 17.2861 63.5917 17.1861 63.6984 17.1128C63.805 17.0395 63.9317 17.0028 64.0784 17.0028C64.2717 17.0028 64.415 17.0461 64.5084 17.1328C64.6084 17.2128 64.6917 17.3361 64.7584 17.5028L67.1284 22.9928H66.6984L69.0584 17.4928C69.1317 17.3328 69.2184 17.2128 69.3184 17.1328C69.4184 17.0461 69.5584 17.0028 69.7384 17.0028C69.885 17.0028 70.005 17.0395 70.0984 17.1128C70.1984 17.1861 70.2617 17.2861 70.2884 17.4128C70.315 17.5395 70.2917 17.6861 70.2184 17.8528L67.6084 23.7128C67.535 23.8795 67.4417 24.0061 67.3284 24.0928C67.2217 24.1728 67.075 24.2128 66.8884 24.2128ZM71.8973 24.1328C71.6773 24.1328 71.5073 24.0761 71.3873 23.9628C71.2739 23.8428 71.2173 23.6728 71.2173 23.4528V17.7628C71.2173 17.5428 71.2739 17.3761 71.3873 17.2628C71.5073 17.1428 71.6773 17.0828 71.8973 17.0828H75.4673C75.6339 17.0828 75.7606 17.1261 75.8473 17.2128C75.9406 17.2995 75.9873 17.4228 75.9873 17.5828C75.9873 17.7495 75.9406 17.8795 75.8473 17.9728C75.7606 18.0595 75.6339 18.1028 75.4673 18.1028H72.4473V20.0428H75.2473C75.4206 20.0428 75.5506 20.0861 75.6373 20.1728C75.7239 20.2595 75.7673 20.3861 75.7673 20.5528C75.7673 20.7195 75.7239 20.8461 75.6373 20.9328C75.5506 21.0195 75.4206 21.0628 75.2473 21.0628H72.4473V23.1128H75.4673C75.6339 23.1128 75.7606 23.1561 75.8473 23.2428C75.9406 23.3295 75.9873 23.4561 75.9873 23.6228C75.9873 23.7895 75.9406 23.9161 75.8473 24.0028C75.7606 24.0895 75.6339 24.1328 75.4673 24.1328H71.8973ZM82.2389 24.2128C82.0322 24.2128 81.8722 24.1561 81.7589 24.0428C81.6522 23.9228 81.5989 23.7595 81.5989 23.5528V18.1528H79.6489C79.4756 18.1528 79.3389 18.1061 79.2389 18.0128C79.1456 17.9128 79.0989 17.7795 79.0989 17.6128C79.0989 17.4395 79.1456 17.3095 79.2389 17.2228C79.3389 17.1295 79.4756 17.0828 79.6489 17.0828H84.8289C85.0022 17.0828 85.1356 17.1295 85.2289 17.2228C85.3289 17.3095 85.3789 17.4395 85.3789 17.6128C85.3789 17.7795 85.3289 17.9128 85.2289 18.0128C85.1356 18.1061 85.0022 18.1528 84.8289 18.1528H82.8789V23.5528C82.8789 23.7595 82.8256 23.9228 82.7189 24.0428C82.6122 24.1561 82.4522 24.2128 82.2389 24.2128ZM86.7498 24.2128C86.5432 24.2128 86.3832 24.1561 86.2698 24.0428C86.1632 23.9228 86.1098 23.7595 86.1098 23.5528V17.7328C86.1098 17.5195 86.1665 17.3595 86.2798 17.2528C86.3932 17.1395 86.5532 17.0828 86.7598 17.0828H89.1698C89.9432 17.0828 90.5398 17.2695 90.9598 17.6428C91.3798 18.0095 91.5898 18.5261 91.5898 19.1928C91.5898 19.6261 91.4932 19.9995 91.2998 20.3128C91.1132 20.6261 90.8398 20.8661 90.4798 21.0328C90.1198 21.1995 89.6832 21.2828 89.1698 21.2828L89.2598 21.1328H89.5898C89.8632 21.1328 90.0998 21.1995 90.2998 21.3328C90.5065 21.4661 90.6865 21.6761 90.8398 21.9628L91.5898 23.3528C91.6698 23.4928 91.7065 23.6295 91.6998 23.7628C91.6932 23.8961 91.6432 24.0061 91.5498 24.0928C91.4565 24.1728 91.3198 24.2128 91.1398 24.2128C90.9598 24.2128 90.8132 24.1761 90.6998 24.1028C90.5865 24.0228 90.4865 23.9028 90.3998 23.7428L89.3898 21.8828C89.2698 21.6561 89.1265 21.5061 88.9598 21.4328C88.7998 21.3528 88.5932 21.3128 88.3398 21.3128H87.3898V23.5528C87.3898 23.7595 87.3365 23.9228 87.2298 24.0428C87.1232 24.1561 86.9632 24.2128 86.7498 24.2128ZM87.3898 20.3628H88.9498C89.4098 20.3628 89.7565 20.2695 89.9898 20.0828C90.2298 19.8895 90.3498 19.6028 90.3498 19.2228C90.3498 18.8495 90.2298 18.5695 89.9898 18.3828C89.7565 18.1895 89.4098 18.0928 88.9498 18.0928H87.3898V20.3628ZM92.9084 24.2128C92.7484 24.2128 92.6184 24.1761 92.5184 24.1028C92.425 24.0295 92.3684 23.9328 92.3484 23.8128C92.3284 23.6861 92.3517 23.5461 92.4184 23.3928L95.0584 17.5428C95.145 17.3495 95.2484 17.2128 95.3684 17.1328C95.495 17.0461 95.6384 17.0028 95.7984 17.0028C95.9517 17.0028 96.0884 17.0461 96.2084 17.1328C96.335 17.2128 96.4417 17.3495 96.5284 17.5428L99.1784 23.3928C99.2517 23.5461 99.2784 23.6861 99.2584 23.8128C99.2384 23.9395 99.1817 24.0395 99.0884 24.1128C98.995 24.1795 98.8717 24.2128 98.7184 24.2128C98.5317 24.2128 98.385 24.1695 98.2784 24.0828C98.1784 23.9895 98.0884 23.8495 98.0084 23.6628L97.3584 22.1528L97.8984 22.5028H93.6784L94.2184 22.1528L93.5784 23.6628C93.4917 23.8561 93.4017 23.9961 93.3084 24.0828C93.215 24.1695 93.0817 24.2128 92.9084 24.2128ZM95.7784 18.4728L94.3784 21.8028L94.1184 21.4828H97.4584L97.2084 21.8028L95.7984 18.4728H95.7784ZM100.92 24.2128C100.713 24.2128 100.553 24.1561 100.44 24.0428C100.333 23.9228 100.28 23.7595 100.28 23.5528V17.6628C100.28 17.4495 100.333 17.2861 100.44 17.1728C100.553 17.0595 100.713 17.0028 100.92 17.0028C101.126 17.0028 101.283 17.0595 101.39 17.1728C101.503 17.2861 101.56 17.4495 101.56 17.6628V23.5528C101.56 23.7595 101.506 23.9228 101.4 24.0428C101.293 24.1561 101.133 24.2128 100.92 24.2128ZM103.752 24.1328C103.545 24.1328 103.385 24.0761 103.272 23.9628C103.159 23.8428 103.102 23.6795 103.102 23.4728V17.7028C103.102 17.4895 103.155 17.3295 103.262 17.2228C103.375 17.1095 103.535 17.0528 103.742 17.0528C103.949 17.0528 104.105 17.1095 104.212 17.2228C104.325 17.3295 104.382 17.4895 104.382 17.7028V23.0428H107.282C107.462 23.0428 107.599 23.0895 107.692 23.1828C107.792 23.2761 107.842 23.4095 107.842 23.5828C107.842 23.7561 107.792 23.8928 107.692 23.9928C107.599 24.0861 107.462 24.1328 107.282 24.1328H103.752ZM111.001 24.2328C110.707 24.2328 110.414 24.2095 110.121 24.1628C109.827 24.1228 109.551 24.0595 109.291 23.9728C109.031 23.8795 108.797 23.7661 108.591 23.6328C108.471 23.5528 108.387 23.4561 108.341 23.3428C108.294 23.2295 108.277 23.1195 108.291 23.0128C108.311 22.8995 108.354 22.8028 108.421 22.7228C108.494 22.6361 108.584 22.5828 108.691 22.5628C108.797 22.5428 108.914 22.5728 109.041 22.6528C109.334 22.8261 109.644 22.9528 109.971 23.0328C110.297 23.1128 110.641 23.1528 111.001 23.1528C111.527 23.1528 111.911 23.0661 112.151 22.8928C112.391 22.7128 112.511 22.4828 112.511 22.2028C112.511 21.9695 112.424 21.7861 112.251 21.6528C112.084 21.5195 111.794 21.4095 111.381 21.3228L110.281 21.0928C109.647 20.9595 109.174 20.7361 108.861 20.4228C108.554 20.1028 108.401 19.6828 108.401 19.1628C108.401 18.8361 108.467 18.5395 108.601 18.2728C108.734 18.0061 108.921 17.7761 109.161 17.5828C109.407 17.3895 109.697 17.2428 110.031 17.1428C110.371 17.0361 110.744 16.9828 111.151 16.9828C111.551 16.9828 111.931 17.0328 112.291 17.1328C112.651 17.2328 112.974 17.3795 113.261 17.5728C113.367 17.6461 113.437 17.7361 113.471 17.8428C113.511 17.9495 113.521 18.0561 113.501 18.1628C113.481 18.2628 113.434 18.3495 113.361 18.4228C113.287 18.4961 113.194 18.5395 113.081 18.5528C112.974 18.5661 112.851 18.5328 112.711 18.4528C112.464 18.3128 112.214 18.2128 111.961 18.1528C111.707 18.0928 111.434 18.0628 111.141 18.0628C110.834 18.0628 110.571 18.1061 110.351 18.1928C110.131 18.2795 109.961 18.4028 109.841 18.5628C109.727 18.7161 109.671 18.8995 109.671 19.1128C109.671 19.3528 109.751 19.5461 109.911 19.6928C110.071 19.8328 110.344 19.9428 110.731 20.0228L111.821 20.2528C112.481 20.3928 112.971 20.6128 113.291 20.9128C113.617 21.2128 113.781 21.6128 113.781 22.1128C113.781 22.4328 113.714 22.7228 113.581 22.9828C113.454 23.2428 113.267 23.4661 113.021 23.6528C112.781 23.8395 112.491 23.9828 112.151 24.0828C111.811 24.1828 111.427 24.2328 111.001 24.2328Z" fill="black"/>
<path d="M5.13281 6.13281C5.13281 6.13281 16.462 1.13281 24.6328 1.13281C32.8036 1.13281 44.1328 6.13281 44.1328 6.13281" stroke="white" stroke-width="0.5" stroke-dasharray="2 2"/>
<path d="M6.37205 10.8509L7.18096 10.4564L7.52648 6.03213L9.751 4.94716C10.0867 4.78343 10.2255 4.38027 10.0618 4.04457C9.89805 3.70887 9.49489 3.57006 9.15919 3.73379L6.93468 4.81876L3.23562 2.3672L2.42671 2.76174L5.11462 5.70646L2.89011 6.79143L1.79025 6.07618L1.18357 6.37208L2.37709 7.79265L2.7617 9.60774L3.36839 9.31184L3.48191 8.0048L5.70642 6.91983L6.37205 10.8509Z" fill="white"/>
</svg>
