<svg width="121" height="47" viewBox="0 0 121 47" fill="none" xmlns="http://www.w3.org/2000/svg">
<path d="M17.6802 19.6662C17.469 19.7678 17.1483 20.0023 16.9684 20.19C16.5304 20.6513 14.1524 24.0054 13.9647 24.4197C13.8395 24.6934 13.8082 24.9357 13.8082 25.6628C13.8082 26.515 13.8239 26.5932 14.0507 27.0467C14.2697 27.4845 14.4027 27.6174 15.6621 28.6182C16.546 29.3218 17.164 29.7597 17.3908 29.83C17.8445 29.9864 18.4703 29.9864 19.0726 29.83C19.628 29.6893 19.98 29.7362 20.199 29.9786C20.2851 30.0724 20.5197 30.4633 20.7309 30.8464C21.0673 31.4719 21.169 31.8081 21.7869 34.2631C22.8508 38.5006 23.414 39.7437 24.4621 40.1972C25.3148 40.5725 26.3786 40.3692 26.9965 39.7125C27.1295 39.5717 27.6223 38.8212 28.0838 38.0471C28.7096 36.9917 29.0694 36.4835 29.5075 36.03C30.3758 35.1153 30.4227 34.998 30.4696 33.1528L30.5087 31.6283L31.2206 30.7292C32.1592 29.5564 32.3 29.2828 32.3 28.5869C32.3079 27.9536 32.1045 27.422 31.6977 26.9998C31.5569 26.8512 31.0719 26.5072 30.6104 26.2336C30.1489 25.9521 29.7187 25.655 29.6561 25.5612C29.5935 25.4752 29.2181 24.6543 28.827 23.7395C28.4358 22.8326 28.0134 21.9569 27.8805 21.8006C27.7553 21.652 27.4346 21.4175 27.1686 21.2846C26.582 20.9875 26.1439 20.9718 24.994 21.2064C24.5482 21.3002 24.0788 21.3549 23.9459 21.3315C23.8129 21.308 23.0854 20.9249 22.3345 20.4793C21.5835 20.0258 20.8483 19.6192 20.6996 19.5723C20.5432 19.5176 19.9487 19.4785 19.2525 19.4785C18.173 19.4785 18.0401 19.4942 17.6802 19.6662ZM21.5992 21.5973C22.3267 22.0351 23.0854 22.4573 23.2966 22.5355C23.7738 22.7231 24.2431 22.7231 25.1896 22.5277C26.097 22.34 26.3395 22.3322 26.6367 22.4886C26.887 22.6137 27.0044 22.856 27.857 24.8654C28.5062 26.4134 28.694 26.6401 29.883 27.3594C30.5791 27.7816 30.7747 27.938 30.892 28.1804C31.1032 28.626 30.9859 28.8918 30.1176 29.9864C29.6874 30.5337 29.3276 31.0653 29.2572 31.2764C29.1711 31.5344 29.1398 31.9645 29.1398 32.9339C29.1398 33.6532 29.1086 34.3412 29.0616 34.4507C29.0225 34.5602 28.7253 34.9276 28.4124 35.256C27.99 35.7016 27.6145 36.2411 26.9653 37.3122C26.4881 38.1097 26.0422 38.8055 25.9797 38.8603C25.6277 39.1495 24.9628 39.0948 24.6968 38.7508C24.3213 38.2739 23.7425 36.5382 23.0854 33.9034C22.4596 31.4172 22.3892 31.1826 21.9512 30.2991C21.5757 29.5408 21.3958 29.2749 21.0751 28.9857C20.4493 28.4227 19.7923 28.282 18.8536 28.5087C17.9306 28.7276 17.9384 28.7355 16.6008 27.6643C15.9359 27.1405 15.3336 26.6167 15.2632 26.4994C15.1771 26.3587 15.138 26.1007 15.138 25.6316V24.967L16.5069 23.0515C17.25 21.996 17.9618 21.0656 18.0792 20.9718C18.2669 20.8233 18.3921 20.8076 19.2838 20.8076H20.2772L21.5992 21.5973Z" fill="black"/>
<path d="M33.9341 31.1485C33.809 31.2267 33.238 31.7661 32.6826 32.3369L31.6657 33.3845L31.298 35.2219C31.0321 36.5901 30.9617 37.1061 31.0164 37.2546C31.1025 37.497 32.3619 38.787 32.6669 38.9434C32.8468 39.0372 32.9407 39.045 33.1519 38.9747C33.3944 38.8965 33.5352 38.701 34.5208 37.0592C35.1231 36.0584 35.6159 35.1515 35.6159 35.0499C35.6159 34.7997 34.998 31.7114 34.8963 31.4456C34.8181 31.2345 34.4817 30.9999 34.2705 30.9999C34.2157 30.9999 34.0671 31.0625 33.9341 31.1485ZM33.9732 33.5175C34.0202 33.7442 34.0984 34.1586 34.1453 34.44L34.2314 34.9482L33.543 36.0819C33.1676 36.7073 32.8468 37.2312 32.8312 37.2468C32.8077 37.2703 32.6904 37.1843 32.5652 37.0514L32.3384 36.8246L32.6278 35.4017L32.9172 33.9787L33.3475 33.5409C33.5821 33.3064 33.7933 33.1109 33.8246 33.1109C33.8559 33.1109 33.9185 33.2985 33.9732 33.5175Z" fill="black"/>
<path d="M22.5915 6.15606C19.7677 6.44534 17.64 7.03954 15.3168 8.1732C12.0862 9.76815 9.33279 12.184 7.36159 15.1628C5.76585 17.5865 4.70984 20.362 4.27962 23.2705C4.08406 24.584 4.08406 27.6722 4.2718 28.9388C5.28087 35.5531 9.20764 40.9869 15.1604 43.997C19.4783 46.1705 24.3124 46.7021 29.0449 45.5137C31.0474 45.0134 33.4332 43.9579 35.1071 42.8399C37.9935 40.9165 40.3167 38.3287 41.8812 35.3108C43.2892 32.6056 44.001 29.9005 44.1183 26.8278C44.2904 22.0899 42.8277 17.5474 39.8943 13.779C39.1356 12.8017 37.6415 11.2771 36.7107 10.5344C33.8868 8.28266 30.5624 6.83626 26.972 6.29679C26.2289 6.18734 23.2564 6.0857 22.5915 6.15606ZM23.7336 7.57119C23.5928 7.84483 22.5055 8.82213 22.044 9.09577C21.1757 9.6196 20.4326 9.86197 19.1106 10.0574C17.8747 10.2373 17.2333 10.6204 16.6701 11.496C15.8331 12.8173 16.0052 14.4044 17.1238 15.5694C17.6478 16.1167 18.1563 16.3981 18.8916 16.5545C19.5799 16.703 20.0962 16.6483 20.9097 16.3669C21.4495 16.1714 21.5903 16.1558 22.6697 16.1636C23.6788 16.1714 23.9526 16.1949 24.6097 16.3747C27.191 17.0627 29.3969 18.9235 30.7736 21.5895C31.0943 22.2072 31.767 22.903 32.2911 23.1532C32.5727 23.2939 32.8543 23.3565 33.2845 23.3721C34.4188 23.4268 35.2479 23.0047 36.476 21.7459C37.3052 20.9093 37.446 20.8077 37.8058 20.8077C38.4159 20.8077 38.6975 21.183 39.1278 22.5825C39.4172 23.5207 39.7066 23.9429 40.3011 24.3025C40.8252 24.6152 41.2632 24.6856 42.0689 24.5761C42.4131 24.5371 42.7103 24.5136 42.7338 24.5371C42.8433 24.6387 42.7573 27.8599 42.6243 28.7433C41.7013 34.8886 37.8918 40.1425 32.3693 42.8555C30.5624 43.7546 28.7398 44.3175 26.7373 44.6225C25.431 44.8179 22.8027 44.8179 21.4964 44.6225C19.4861 44.3175 17.7026 43.7624 15.8644 42.8555C14.7067 42.2848 13.1109 41.284 13.0327 41.0807C12.9623 40.9087 13.3065 37.8205 13.4473 37.3045C13.5177 37.0699 13.7445 36.5773 13.9557 36.2099C14.1591 35.8424 14.4094 35.3342 14.4955 35.0762C14.7067 34.4742 14.8005 33.4969 14.7223 32.8402C14.5502 31.3781 13.549 30.1819 12.1488 29.7597C11.1084 29.447 11.0537 29.4079 10.029 28.4228C8.95732 27.3829 8.5975 27.1249 7.94043 26.8982C7.18167 26.6402 6.18043 26.6324 5.52336 26.8826C5.44513 26.9138 5.42167 26.7262 5.42167 26.0382C5.42167 24.7247 5.35127 24.8185 6.3838 24.7794C7.65101 24.7247 8.41759 24.4041 9.11377 23.6458C9.26239 23.4816 9.55964 23.161 9.77084 22.9265C10.0759 22.5903 10.3497 22.4105 11.1632 22.0039C12.4069 21.3784 12.9545 20.8937 13.3691 20.0571C13.768 19.2597 13.8619 18.556 13.6898 17.6413C13.416 16.1401 12.7824 15.3974 11.0459 14.5139L9.93511 13.951L10.6704 13.1848C14.0183 9.71342 18.7664 7.57901 23.4363 7.4461C23.7727 7.43828 23.804 7.45391 23.7336 7.57119ZM26.8312 7.67283C32.252 8.4703 36.9923 11.5586 39.9569 16.2418C41.0833 18.0165 42.0455 20.4637 42.46 22.6216C42.5695 23.2157 42.6165 23.1767 41.7482 23.2705C40.9503 23.3643 40.7 23.1532 40.395 22.1368C40.1681 21.3941 39.7692 20.5262 39.5032 20.2213C39.3937 20.0884 39.1199 19.8773 38.8853 19.7522C38.5176 19.5411 38.4003 19.5177 37.8058 19.5177C36.9219 19.5177 36.6716 19.6584 35.5843 20.7608C34.5204 21.8397 34.0746 22.0977 33.3471 22.043C32.6979 21.9961 32.4163 21.7459 31.8139 20.7139C31.0395 19.3769 30.5389 18.7045 29.6706 17.8367C27.6056 15.757 25.0321 14.7094 22.2552 14.8032C21.4103 14.8345 21.1679 14.8735 20.6359 15.0612C19.6034 15.4365 18.8681 15.3505 18.2189 14.7875C17.3819 14.0526 17.2411 12.9502 17.8825 12.1215C18.2814 11.5977 18.4614 11.5038 19.314 11.3787C20.2135 11.2458 21.2383 10.9722 21.8875 10.6829C23.0061 10.1903 24.4689 8.94722 25.1259 7.92302C25.4388 7.4461 25.3762 7.45391 26.8312 7.67283ZM11.789 16.5936C12.6729 17.5709 12.6338 19.2518 11.7186 20.0962C11.5387 20.2604 10.9285 20.6357 10.3732 20.9171C9.32497 21.4488 9.0199 21.6912 8.28461 22.559C7.76052 23.1845 7.26772 23.4034 6.32905 23.4503L5.64069 23.4894L5.69545 23.0672C5.86754 21.8084 6.55589 19.6037 7.22078 18.1885C7.59625 17.3832 8.36283 16.0698 8.83999 15.3974L9.11377 15.0221L10.2715 15.6085C11.218 16.0932 11.4996 16.273 11.789 16.5936ZM7.72923 28.2664C8.04212 28.4071 8.44106 28.7277 9.1607 29.4314C10.2167 30.4634 10.6 30.7136 11.4526 30.9325C12.36 31.167 12.8528 31.558 13.2126 32.3398C13.3613 32.6525 13.4004 32.8636 13.4004 33.4109C13.4004 34.2318 13.2283 34.8339 12.7746 35.5844C12.2583 36.4366 12.0784 37.0777 11.8985 38.6258C11.8124 39.3841 11.7186 40.0174 11.7029 40.0409C11.6404 40.1034 10.0212 38.3834 9.46577 37.6797C7.92479 35.7017 6.85314 33.6064 6.15696 31.1905C5.81278 29.9943 5.53118 28.4071 5.64851 28.2899C5.79713 28.1413 6.47767 28.0006 6.89225 28.0319C7.11127 28.0553 7.49456 28.157 7.72923 28.2664Z" fill="black"/>
<rect x="22.132" y="10.1328" width="98" height="21" rx="10.5" fill="#DEFDFD"/>
<path d="M32.182 24.2328C31.4486 24.2328 30.8186 24.0861 30.292 23.7928C29.772 23.4928 29.372 23.0728 29.092 22.5328C28.812 21.9861 28.672 21.3428 28.672 20.6028C28.672 20.0495 28.752 19.5528 28.912 19.1128C29.072 18.6661 29.302 18.2861 29.602 17.9728C29.902 17.6528 30.2686 17.4095 30.702 17.2428C31.142 17.0695 31.6353 16.9828 32.182 16.9828C32.5486 16.9828 32.9086 17.0295 33.262 17.1228C33.6153 17.2161 33.9253 17.3495 34.192 17.5228C34.332 17.6095 34.4253 17.7161 34.472 17.8428C34.5186 17.9628 34.5286 18.0828 34.502 18.2028C34.4753 18.3161 34.4186 18.4128 34.332 18.4928C34.252 18.5728 34.1486 18.6195 34.022 18.6328C33.902 18.6395 33.7686 18.5961 33.622 18.5028C33.4153 18.3695 33.192 18.2728 32.952 18.2128C32.712 18.1528 32.4686 18.1228 32.222 18.1228C31.7486 18.1228 31.3486 18.2195 31.022 18.4128C30.6953 18.6061 30.4486 18.8861 30.282 19.2528C30.1153 19.6195 30.032 20.0695 30.032 20.6028C30.032 21.1295 30.1153 21.5795 30.282 21.9528C30.4486 22.3261 30.6953 22.6095 31.022 22.8028C31.3486 22.9961 31.7486 23.0928 32.222 23.0928C32.4753 23.0928 32.7253 23.0628 32.972 23.0028C33.2186 22.9361 33.452 22.8361 33.672 22.7028C33.8186 22.6161 33.9486 22.5795 34.062 22.5928C34.182 22.5995 34.282 22.6395 34.362 22.7128C34.442 22.7861 34.4953 22.8795 34.522 22.9928C34.5486 23.0995 34.542 23.2128 34.502 23.3328C34.462 23.4461 34.382 23.5461 34.262 23.6328C33.9953 23.8261 33.6753 23.9761 33.302 24.0828C32.9353 24.1828 32.562 24.2328 32.182 24.2328ZM36.3388 24.2128C36.1322 24.2128 35.9722 24.1561 35.8588 24.0428C35.7522 23.9228 35.6988 23.7595 35.6988 23.5528V17.7328C35.6988 17.5195 35.7555 17.3595 35.8688 17.2528C35.9822 17.1395 36.1422 17.0828 36.3488 17.0828H38.7588C39.5322 17.0828 40.1288 17.2695 40.5488 17.6428C40.9688 18.0095 41.1788 18.5261 41.1788 19.1928C41.1788 19.6261 41.0822 19.9995 40.8888 20.3128C40.7022 20.6261 40.4288 20.8661 40.0688 21.0328C39.7088 21.1995 39.2722 21.2828 38.7588 21.2828L38.8488 21.1328H39.1788C39.4522 21.1328 39.6888 21.1995 39.8888 21.3328C40.0955 21.4661 40.2755 21.6761 40.4288 21.9628L41.1788 23.3528C41.2588 23.4928 41.2955 23.6295 41.2888 23.7628C41.2822 23.8961 41.2322 24.0061 41.1388 24.0928C41.0455 24.1728 40.9088 24.2128 40.7288 24.2128C40.5488 24.2128 40.4022 24.1761 40.2888 24.1028C40.1755 24.0228 40.0755 23.9028 39.9888 23.7428L38.9788 21.8828C38.8588 21.6561 38.7155 21.5061 38.5488 21.4328C38.3888 21.3528 38.1822 21.3128 37.9288 21.3128H36.9788V23.5528C36.9788 23.7595 36.9255 23.9228 36.8188 24.0428C36.7122 24.1561 36.5522 24.2128 36.3388 24.2128ZM36.9788 20.3628H38.5388C38.9988 20.3628 39.3455 20.2695 39.5788 20.0828C39.8188 19.8895 39.9388 19.6028 39.9388 19.2228C39.9388 18.8495 39.8188 18.5695 39.5788 18.3828C39.3455 18.1895 38.9988 18.0928 38.5388 18.0928H36.9788V20.3628ZM43.2343 24.1328C43.0143 24.1328 42.8443 24.0761 42.7243 23.9628C42.611 23.8428 42.5543 23.6728 42.5543 23.4528V17.7628C42.5543 17.5428 42.611 17.3761 42.7243 17.2628C42.8443 17.1428 43.0143 17.0828 43.2343 17.0828H46.8043C46.971 17.0828 47.0976 17.1261 47.1843 17.2128C47.2776 17.2995 47.3243 17.4228 47.3243 17.5828C47.3243 17.7495 47.2776 17.8795 47.1843 17.9728C47.0976 18.0595 46.971 18.1028 46.8043 18.1028H43.7843V20.0428H46.5843C46.7576 20.0428 46.8876 20.0861 46.9743 20.1728C47.061 20.2595 47.1043 20.3861 47.1043 20.5528C47.1043 20.7195 47.061 20.8461 46.9743 20.9328C46.8876 21.0195 46.7576 21.0628 46.5843 21.0628H43.7843V23.1128H46.8043C46.971 23.1128 47.0976 23.1561 47.1843 23.2428C47.2776 23.3295 47.3243 23.4561 47.3243 23.6228C47.3243 23.7895 47.2776 23.9161 47.1843 24.0028C47.0976 24.0895 46.971 24.1328 46.8043 24.1328H43.2343ZM48.4641 24.2128C48.3041 24.2128 48.1741 24.1761 48.0741 24.1028C47.9808 24.0295 47.9241 23.9328 47.9041 23.8128C47.8841 23.6861 47.9075 23.5461 47.9741 23.3928L50.6141 17.5428C50.7008 17.3495 50.8041 17.2128 50.9241 17.1328C51.0508 17.0461 51.1941 17.0028 51.3541 17.0028C51.5075 17.0028 51.6441 17.0461 51.7641 17.1328C51.8908 17.2128 51.9975 17.3495 52.0841 17.5428L54.7341 23.3928C54.8075 23.5461 54.8341 23.6861 54.8141 23.8128C54.7941 23.9395 54.7375 24.0395 54.6441 24.1128C54.5508 24.1795 54.4275 24.2128 54.2741 24.2128C54.0875 24.2128 53.9408 24.1695 53.8341 24.0828C53.7341 23.9895 53.6441 23.8495 53.5641 23.6628L52.9141 22.1528L53.4541 22.5028H49.2341L49.7741 22.1528L49.1341 23.6628C49.0475 23.8561 48.9575 23.9961 48.8641 24.0828C48.7708 24.1695 48.6375 24.2128 48.4641 24.2128ZM51.3341 18.4728L49.9341 21.8028L49.6741 21.4828H53.0141L52.7641 21.8028L51.3541 18.4728H51.3341ZM57.3943 24.2128C57.1876 24.2128 57.0276 24.1561 56.9143 24.0428C56.8076 23.9228 56.7543 23.7595 56.7543 23.5528V18.1528H54.8043C54.631 18.1528 54.4943 18.1061 54.3943 18.0128C54.301 17.9128 54.2543 17.7795 54.2543 17.6128C54.2543 17.4395 54.301 17.3095 54.3943 17.2228C54.4943 17.1295 54.631 17.0828 54.8043 17.0828H59.9843C60.1576 17.0828 60.291 17.1295 60.3843 17.2228C60.4843 17.3095 60.5343 17.4395 60.5343 17.6128C60.5343 17.7795 60.4843 17.9128 60.3843 18.0128C60.291 18.1061 60.1576 18.1528 59.9843 18.1528H58.0343V23.5528C58.0343 23.7595 57.981 23.9228 57.8743 24.0428C57.7676 24.1561 57.6076 24.2128 57.3943 24.2128ZM61.9052 24.2128C61.6986 24.2128 61.5386 24.1561 61.4252 24.0428C61.3186 23.9228 61.2652 23.7595 61.2652 23.5528V17.6628C61.2652 17.4495 61.3186 17.2861 61.4252 17.1728C61.5386 17.0595 61.6986 17.0028 61.9052 17.0028C62.1119 17.0028 62.2686 17.0595 62.3752 17.1728C62.4886 17.2861 62.5452 17.4495 62.5452 17.6628V23.5528C62.5452 23.7595 62.4919 23.9228 62.3852 24.0428C62.2786 24.1561 62.1186 24.2128 61.9052 24.2128ZM66.8875 24.2128C66.7075 24.2128 66.5575 24.1728 66.4375 24.0928C66.3242 24.0061 66.2308 23.8795 66.1575 23.7128L63.5475 17.8528C63.4742 17.6861 63.4542 17.5395 63.4875 17.4128C63.5208 17.2861 63.5908 17.1861 63.6975 17.1128C63.8042 17.0395 63.9308 17.0028 64.0775 17.0028C64.2708 17.0028 64.4142 17.0461 64.5075 17.1328C64.6075 17.2128 64.6908 17.3361 64.7575 17.5028L67.1275 22.9928H66.6975L69.0575 17.4928C69.1308 17.3328 69.2175 17.2128 69.3175 17.1328C69.4175 17.0461 69.5575 17.0028 69.7375 17.0028C69.8842 17.0028 70.0042 17.0395 70.0975 17.1128C70.1975 17.1861 70.2608 17.2861 70.2875 17.4128C70.3142 17.5395 70.2908 17.6861 70.2175 17.8528L67.6075 23.7128C67.5342 23.8795 67.4408 24.0061 67.3275 24.0928C67.2208 24.1728 67.0742 24.2128 66.8875 24.2128ZM71.8964 24.1328C71.6764 24.1328 71.5064 24.0761 71.3864 23.9628C71.2731 23.8428 71.2164 23.6728 71.2164 23.4528V17.7628C71.2164 17.5428 71.2731 17.3761 71.3864 17.2628C71.5064 17.1428 71.6764 17.0828 71.8964 17.0828H75.4664C75.6331 17.0828 75.7597 17.1261 75.8464 17.2128C75.9397 17.2995 75.9864 17.4228 75.9864 17.5828C75.9864 17.7495 75.9397 17.8795 75.8464 17.9728C75.7597 18.0595 75.6331 18.1028 75.4664 18.1028H72.4464V20.0428H75.2464C75.4197 20.0428 75.5497 20.0861 75.6364 20.1728C75.7231 20.2595 75.7664 20.3861 75.7664 20.5528C75.7664 20.7195 75.7231 20.8461 75.6364 20.9328C75.5497 21.0195 75.4197 21.0628 75.2464 21.0628H72.4464V23.1128H75.4664C75.6331 23.1128 75.7597 23.1561 75.8464 23.2428C75.9397 23.3295 75.9864 23.4561 75.9864 23.6228C75.9864 23.7895 75.9397 23.9161 75.8464 24.0028C75.7597 24.0895 75.6331 24.1328 75.4664 24.1328H71.8964ZM82.2381 24.2128C82.0314 24.2128 81.8714 24.1561 81.7581 24.0428C81.6514 23.9228 81.5981 23.7595 81.5981 23.5528V18.1528H79.6481C79.4747 18.1528 79.3381 18.1061 79.2381 18.0128C79.1447 17.9128 79.0981 17.7795 79.0981 17.6128C79.0981 17.4395 79.1447 17.3095 79.2381 17.2228C79.3381 17.1295 79.4747 17.0828 79.6481 17.0828H84.8281C85.0014 17.0828 85.1347 17.1295 85.2281 17.2228C85.3281 17.3095 85.3781 17.4395 85.3781 17.6128C85.3781 17.7795 85.3281 17.9128 85.2281 18.0128C85.1347 18.1061 85.0014 18.1528 84.8281 18.1528H82.8781V23.5528C82.8781 23.7595 82.8247 23.9228 82.7181 24.0428C82.6114 24.1561 82.4514 24.2128 82.2381 24.2128ZM86.749 24.2128C86.5423 24.2128 86.3823 24.1561 86.269 24.0428C86.1623 23.9228 86.109 23.7595 86.109 23.5528V17.7328C86.109 17.5195 86.1657 17.3595 86.279 17.2528C86.3923 17.1395 86.5523 17.0828 86.759 17.0828H89.169C89.9423 17.0828 90.539 17.2695 90.959 17.6428C91.379 18.0095 91.589 18.5261 91.589 19.1928C91.589 19.6261 91.4923 19.9995 91.299 20.3128C91.1123 20.6261 90.839 20.8661 90.479 21.0328C90.119 21.1995 89.6823 21.2828 89.169 21.2828L89.259 21.1328H89.589C89.8623 21.1328 90.099 21.1995 90.299 21.3328C90.5057 21.4661 90.6857 21.6761 90.839 21.9628L91.589 23.3528C91.669 23.4928 91.7057 23.6295 91.699 23.7628C91.6923 23.8961 91.6423 24.0061 91.549 24.0928C91.4557 24.1728 91.319 24.2128 91.139 24.2128C90.959 24.2128 90.8123 24.1761 90.699 24.1028C90.5857 24.0228 90.4857 23.9028 90.399 23.7428L89.389 21.8828C89.269 21.6561 89.1257 21.5061 88.959 21.4328C88.799 21.3528 88.5923 21.3128 88.339 21.3128H87.389V23.5528C87.389 23.7595 87.3357 23.9228 87.229 24.0428C87.1223 24.1561 86.9623 24.2128 86.749 24.2128ZM87.389 20.3628H88.949C89.409 20.3628 89.7557 20.2695 89.989 20.0828C90.229 19.8895 90.349 19.6028 90.349 19.2228C90.349 18.8495 90.229 18.5695 89.989 18.3828C89.7557 18.1895 89.409 18.0928 88.949 18.0928H87.389V20.3628ZM92.9075 24.2128C92.7475 24.2128 92.6175 24.1761 92.5175 24.1028C92.4242 24.0295 92.3675 23.9328 92.3475 23.8128C92.3275 23.6861 92.3508 23.5461 92.4175 23.3928L95.0575 17.5428C95.1442 17.3495 95.2475 17.2128 95.3675 17.1328C95.4942 17.0461 95.6375 17.0028 95.7975 17.0028C95.9508 17.0028 96.0875 17.0461 96.2075 17.1328C96.3342 17.2128 96.4408 17.3495 96.5275 17.5428L99.1775 23.3928C99.2508 23.5461 99.2775 23.6861 99.2575 23.8128C99.2375 23.9395 99.1808 24.0395 99.0875 24.1128C98.9942 24.1795 98.8708 24.2128 98.7175 24.2128C98.5308 24.2128 98.3842 24.1695 98.2775 24.0828C98.1775 23.9895 98.0875 23.8495 98.0075 23.6628L97.3575 22.1528L97.8975 22.5028H93.6775L94.2175 22.1528L93.5775 23.6628C93.4908 23.8561 93.4008 23.9961 93.3075 24.0828C93.2142 24.1695 93.0808 24.2128 92.9075 24.2128ZM95.7775 18.4728L94.3775 21.8028L94.1175 21.4828H97.4575L97.2075 21.8028L95.7975 18.4728H95.7775ZM100.919 24.2128C100.712 24.2128 100.552 24.1561 100.439 24.0428C100.332 23.9228 100.279 23.7595 100.279 23.5528V17.6628C100.279 17.4495 100.332 17.2861 100.439 17.1728C100.552 17.0595 100.712 17.0028 100.919 17.0028C101.126 17.0028 101.282 17.0595 101.389 17.1728C101.502 17.2861 101.559 17.4495 101.559 17.6628V23.5528C101.559 23.7595 101.506 23.9228 101.399 24.0428C101.292 24.1561 101.132 24.2128 100.919 24.2128ZM103.751 24.1328C103.545 24.1328 103.385 24.0761 103.271 23.9628C103.158 23.8428 103.101 23.6795 103.101 23.4728V17.7028C103.101 17.4895 103.155 17.3295 103.261 17.2228C103.375 17.1095 103.535 17.0528 103.741 17.0528C103.948 17.0528 104.105 17.1095 104.211 17.2228C104.325 17.3295 104.381 17.4895 104.381 17.7028V23.0428H107.281C107.461 23.0428 107.598 23.0895 107.691 23.1828C107.791 23.2761 107.841 23.4095 107.841 23.5828C107.841 23.7561 107.791 23.8928 107.691 23.9928C107.598 24.0861 107.461 24.1328 107.281 24.1328H103.751ZM111 24.2328C110.707 24.2328 110.413 24.2095 110.12 24.1628C109.827 24.1228 109.55 24.0595 109.29 23.9728C109.03 23.8795 108.797 23.7661 108.59 23.6328C108.47 23.5528 108.387 23.4561 108.34 23.3428C108.293 23.2295 108.277 23.1195 108.29 23.0128C108.31 22.8995 108.353 22.8028 108.42 22.7228C108.493 22.6361 108.583 22.5828 108.69 22.5628C108.797 22.5428 108.913 22.5728 109.04 22.6528C109.333 22.8261 109.643 22.9528 109.97 23.0328C110.297 23.1128 110.64 23.1528 111 23.1528C111.527 23.1528 111.91 23.0661 112.15 22.8928C112.39 22.7128 112.51 22.4828 112.51 22.2028C112.51 21.9695 112.423 21.7861 112.25 21.6528C112.083 21.5195 111.793 21.4095 111.38 21.3228L110.28 21.0928C109.647 20.9595 109.173 20.7361 108.86 20.4228C108.553 20.1028 108.4 19.6828 108.4 19.1628C108.4 18.8361 108.467 18.5395 108.6 18.2728C108.733 18.0061 108.92 17.7761 109.16 17.5828C109.407 17.3895 109.697 17.2428 110.03 17.1428C110.37 17.0361 110.743 16.9828 111.15 16.9828C111.55 16.9828 111.93 17.0328 112.29 17.1328C112.65 17.2328 112.973 17.3795 113.26 17.5728C113.367 17.6461 113.437 17.7361 113.47 17.8428C113.51 17.9495 113.52 18.0561 113.5 18.1628C113.48 18.2628 113.433 18.3495 113.36 18.4228C113.287 18.4961 113.193 18.5395 113.08 18.5528C112.973 18.5661 112.85 18.5328 112.71 18.4528C112.463 18.3128 112.213 18.2128 111.96 18.1528C111.707 18.0928 111.433 18.0628 111.14 18.0628C110.833 18.0628 110.57 18.1061 110.35 18.1928C110.13 18.2795 109.96 18.4028 109.84 18.5628C109.727 18.7161 109.67 18.8995 109.67 19.1128C109.67 19.3528 109.75 19.5461 109.91 19.6928C110.07 19.8328 110.343 19.9428 110.73 20.0228L111.82 20.2528C112.48 20.3928 112.97 20.6128 113.29 20.9128C113.617 21.2128 113.78 21.6128 113.78 22.1128C113.78 22.4328 113.713 22.7228 113.58 22.9828C113.453 23.2428 113.267 23.4661 113.02 23.6528C112.78 23.8395 112.49 23.9828 112.15 24.0828C111.81 24.1828 111.427 24.2328 111 24.2328Z" fill="black"/>
<path d="M6.37211 10.8509L7.18103 10.4564L7.52654 6.03213L9.75106 4.94716C10.0868 4.78343 10.2256 4.38027 10.0618 4.04457C9.89811 3.70887 9.49496 3.57006 9.15926 3.73379L6.93474 4.81876L3.23568 2.3672L2.42677 2.76174L5.11468 5.70646L2.89017 6.79143L1.79031 6.07618L1.18363 6.37208L2.37715 7.79265L2.76176 9.60774L3.36845 9.31184L3.48197 8.0048L5.70648 6.91983L6.37211 10.8509Z" fill="black"/>
<path d="M5.13196 6.13281C5.13196 6.13281 16.4612 1.13281 24.632 1.13281C32.8028 1.13281 44.132 6.13281 44.132 6.13281" stroke="black" stroke-width="0.5" stroke-dasharray="2 2"/>
</svg>
